<svg id="Illustrations" xmlns="http://www.w3.org/2000/svg" xmlns:xlink="http://www.w3.org/1999/xlink" viewBox="0 0 1000 1000"><defs><style>.cls-1{fill:#ece7e1;}.cls-1,.cls-10,.cls-12,.cls-15,.cls-16,.cls-17,.cls-18,.cls-19,.cls-6,.cls-8,.cls-9{stroke:#000;}.cls-1,.cls-10,.cls-12,.cls-13,.cls-15,.cls-16,.cls-17,.cls-18,.cls-19,.cls-2,.cls-3,.cls-4,.cls-5,.cls-6,.cls-7,.cls-8,.cls-9{stroke-linecap:round;}.cls-1,.cls-10,.cls-11,.cls-12,.cls-13,.cls-15,.cls-16,.cls-17,.cls-18,.cls-19,.cls-2,.cls-3,.cls-4,.cls-5,.cls-6,.cls-7,.cls-8,.cls-9{stroke-miterlimit:10;stroke-width:3px;}.cls-2,.cls-9{fill:none;}.cls-13,.cls-2,.cls-3,.cls-4,.cls-5,.cls-7{stroke:#070707;}.cls-3{fill:#f6c34c;}.cls-4{fill:#f6991a;}.cls-5{fill:#84a1e5;}.cls-6{fill:#dbcaf4;}.cls-7{fill:#ff6406;}.cls-8{fill:#c6fcdb;}.cls-10{fill:#f2b3c1;}.cls-11,.cls-14{fill:#040400;}.cls-11{stroke:#040400;}.cls-12{fill:#d87d61;}.cls-13{fill:#fc762b;}.cls-15{fill:url(#linear-gradient);}.cls-16{fill:url(#linear-gradient-2);}.cls-17{fill:url(#linear-gradient-3);}.cls-18{fill:url(#linear-gradient-4);}.cls-19{fill:url(#linear-gradient-5);}</style><linearGradient id="linear-gradient" x1="709.09" y1="569.56" x2="709.09" y2="624.98" gradientUnits="userSpaceOnUse"><stop offset="0.26" stop-color="#fec2d9"/><stop offset="0.75" stop-color="#a4c2ff"/></linearGradient><linearGradient id="linear-gradient-2" x1="156.45" y1="283.76" x2="156.45" y2="351.39" gradientUnits="userSpaceOnUse"><stop offset="0.31" stop-color="#fec2d9"/><stop offset="0.75" stop-color="#a4c2ff"/></linearGradient><linearGradient id="linear-gradient-3" x1="733.14" y1="210.25" x2="733.14" y2="268.8" gradientUnits="userSpaceOnUse"><stop offset="0.31" stop-color="#fec2d9"/><stop offset="0.88" stop-color="#a4c2ff"/></linearGradient><linearGradient id="linear-gradient-4" x1="116.41" y1="355.17" x2="116.41" y2="390.24" xlink:href="#linear-gradient-2"/><linearGradient id="linear-gradient-5" x1="738.18" y1="633.6" x2="738.18" y2="655.53" gradientUnits="userSpaceOnUse"><stop offset="0.22" stop-color="#fec2d9"/><stop offset="0.75" stop-color="#a4c2ff"/></linearGradient></defs><path class="cls-1" d="M354.8,336a48.79,48.79,0,1,1-14.29-34.5A48.61,48.61,0,0,1,354.8,336Z"/><path class="cls-2" d="M334.67,296.55A48.43,48.43,0,0,0,312,295a41.26,41.26,0,0,0-20.53,9.45,34.08,34.08,0,0,0-10.59,19,40.16,40.16,0,0,0,1.7,21.89,29.81,29.81,0,0,0,6,9.79,24.64,24.64,0,0,0,9.46,6.42,26.36,26.36,0,0,0,30.84-11.07,21.17,21.17,0,0,0,1.43-16.67c-1.79-5.44-5.81-9.91-12-10.9a12.08,12.08,0,0,0-12.54,5.53,14.56,14.56,0,0,0-.71,14"/><path class="cls-3" d="M251.66,357.05c3.69-1.68,8.35-3.65,13.88-5.63a178.45,178.45,0,0,1,19.07-5.63,171.11,171.11,0,0,1,30.05-4.14A205.61,205.61,0,0,1,373.45,347a203.11,203.11,0,0,1,19.5,5.7,210,210,0,0,1,24.5,10.3,250.5,250.5,0,0,0-16.64,28.16,247.49,247.49,0,0,0-25.9,92.24A252.15,252.15,0,0,0,375,524s-13.53,3.76-31.08,15a160.78,160.78,0,0,0-55.15,59.55s7.77-31.88,7-78S285.73,414,251.66,357.05Z"/><path class="cls-1" d="M821.23,505.85a282.31,282.31,0,0,0-11.55-73.73c-10.47-35.37-30.51-76.52-68.9-108.38a198.3,198.3,0,0,0-41.67-26.58,209.15,209.15,0,0,0-36.49-13.31c-48.24-12.23-96.94-9.81-140.25,5.1s-81.2,42.33-107.81,80.1c-27.42,38.9-37.18,80.71-39.68,114.87a265.44,265.44,0,0,0,3.88,69L600,529.39Z"/><path class="cls-4" d="M615.65,527.73l102.79-10.94,102.79-10.94a282.31,282.31,0,0,0-11.55-73.73c-10.47-35.37-30.51-76.52-68.9-108.38a198.3,198.3,0,0,0-41.67-26.58,209.15,209.15,0,0,0-36.49-13.31q-12.07-3.06-24.16-4.91t-24.08-2.51a254,254,0,0,0-30.52,95.19C579,415.11,584.46,468.76,615.65,527.73Z"/><path class="cls-2" d="M654.38,281.91a134,134,0,0,1,3.7,40.5c-1.31,23-9,51.64-34.28,73.9a64,64,0,0,1,6.5,28.83c-.1,16.91-6.91,38.77-33.73,58.64"/><path class="cls-4" d="M495.41,300.21a220.39,220.39,0,0,0-44.59,29.23,211.78,211.78,0,0,0-36.26,39.61c-27.42,38.9-37.18,80.71-39.68,114.87a265.44,265.44,0,0,0,3.88,69l66.79-7.1,66.78-7.11c17-47.92,15.57-100.37,8.49-144.44A477.63,477.63,0,0,0,495.41,300.21Z"/><path class="cls-2" d="M458.5,323.23a135.81,135.81,0,0,0-.51,34.92c2.06,17.25,8.34,36.9,24.72,49.35a55.11,55.11,0,0,0,7.14,4.59,58.32,58.32,0,0,0,9.23,4A73.12,73.12,0,0,0,491.9,436c-2.29,11.14-2.49,25.48,5.35,39.17a52.74,52.74,0,0,0,13.5,15.42,59.67,59.67,0,0,0,11.8,7.12"/><path class="cls-5" d="M369.15,705.26l25,41.3,25,41.3q-20.25,15.06-40.46,30.22t-40.61,30c-11.37,8.28-22.86,16.36-35.23,22s-25.61,8.75-40.49,7.14a87.06,87.06,0,0,1-19.67-4.68,79.41,79.41,0,0,1-16.85-8.21c-.64-.43-1.3-.89-1.79-1.24l-.84-.59A70.54,70.54,0,0,1,194,823.36c-4.44-14.65-4.46-30.1-2.66-43.91a141.8,141.8,0,0,1,7.44-30.31,150.61,150.61,0,0,1,13.7-28.07l40.46-65,40.45-65q4.8-7.72,10.28-15a180,180,0,0,1,11.68-13.9,126.41,126.41,0,0,1,54.19-34.5c19.83-6.55,41.32-9,64.07-10.06,32.75-1.48,70.37,2.06,103.42,14.45S598.53,565.7,613,599.62q2.76,6.5,5.66,12.93t5.87,12.83L668,719.11l43.47,93.73a64.7,64.7,0,0,1,5.89,23,60.58,60.58,0,0,1-9.14,36.26A63.69,63.69,0,0,1,700,882.45a64.56,64.56,0,0,1-41.23,19.47,67.08,67.08,0,0,1-44.22-12c-25.17-17.74-55.26-46-79.05-69.86s-41.3-43.24-41.3-43.24l30.33-37,30.33-37a.37.37,0,0,0,.05-.41.37.37,0,0,0-.34-.21l-92.73,1.55Z"/><path class="cls-6" d="M660.2,759.15a32.67,32.67,0,1,1-9.57-23.1A32.57,32.57,0,0,1,660.2,759.15Z"/><path class="cls-6" d="M535.81,644.57a32.67,32.67,0,1,1-9.57-23.11A32.59,32.59,0,0,1,535.81,644.57Z"/><path class="cls-6" d="M283.34,791.82a32.67,32.67,0,1,1-9.57-23.1A32.6,32.6,0,0,1,283.34,791.82Z"/><path class="cls-6" d="M634,870.66a32.66,32.66,0,0,0-61.55-15.26c7.15,6.47,14.37,12.77,21.45,18.61s14,11.22,20.64,15.88q2.07,1.46,4.22,2.73t4.36,2.39A32.54,32.54,0,0,0,634,870.66Z"/><path class="cls-6" d="M354.8,581.28a32.65,32.65,0,0,0,22.83-56,140.7,140.7,0,0,0-28.75,11.16,124.64,124.64,0,0,0-26.15,18.45,32.68,32.68,0,0,0,32.07,26.42Z"/><path class="cls-6" d="M561.84,581.28a32.63,32.63,0,0,0,28.12-16,128.29,128.29,0,0,0-25.63-20.09,167.35,167.35,0,0,0-30.05-14.08,33.19,33.19,0,0,0-3.77,8.25,32.67,32.67,0,0,0,31.33,42Z"/><path class="cls-6" d="M360,787.86a32.66,32.66,0,0,0-19.84,58.62q12.69-9.26,25.28-18.63t25.16-18.77A32.66,32.66,0,0,0,360,787.86Z"/><path class="cls-6" d="M286.51,608.54c-7.56,32-31.2,36.61-52.95,33.26S192,627.11,192,627.11c-16.31,21.65-34.73,28.74-49.07,30.42s-24.6-2.06-24.6-2.06c-43.75-111.79-11.72-188.41,31.24-237.08S246.38,349,246.38,349s19.21,26.07,33.83,71.55S304.86,530.9,286.51,608.54Z"/><path class="cls-7" d="M246.54,567.12h0a17.6,17.6,0,0,1-2.28,9.7,18.06,18.06,0,0,1-15.64,9,17.66,17.66,0,0,1-9.54-2.87H219a17.63,17.63,0,0,1-9.53,2.87,18.09,18.09,0,0,1-15.65-9,17.6,17.6,0,0,1-2.27-9.7h0a17.58,17.58,0,0,1-7.26-6.82,18.08,18.08,0,0,1,0-18.07,17.56,17.56,0,0,1,7.26-6.81h0a17.58,17.58,0,0,1,2.27-9.69,18.13,18.13,0,0,1,15.65-9,17.64,17.64,0,0,1,9.53,2.88h.06a17.67,17.67,0,0,1,9.54-2.88,18.1,18.1,0,0,1,15.64,9,17.59,17.59,0,0,1,2.28,9.69h0a17.69,17.69,0,0,1,7.26,6.81,18.14,18.14,0,0,1,0,18.07A17.71,17.71,0,0,1,246.54,567.12Z"/><path class="cls-1" d="M229.34,551.27a10.28,10.28,0,1,1-3-7.28A10.25,10.25,0,0,1,229.34,551.27Z"/><path class="cls-7" d="M271.56,415.51A10.28,10.28,0,0,1,270.8,395c-2-4.72-3.93-9.11-5.84-13.14s-3.75-7.73-5.51-11a17.69,17.69,0,0,0-3.36.81A18.45,18.45,0,0,0,253,373a17.91,17.91,0,0,0-6.61,6.61,17.62,17.62,0,0,0-2.28,9.7h0a17.77,17.77,0,0,0-7.26,6.82,18.08,18.08,0,0,0,0,18.07,17.77,17.77,0,0,0,7.26,6.82h0a17.62,17.62,0,0,0,2.28,9.7,18.06,18.06,0,0,0,15.64,9,17.66,17.66,0,0,0,9.54-2.87h.06a17.6,17.6,0,0,0,14,2.3q-1.8-7-3.77-13.43c-1.31-4.32-2.67-8.47-4.05-12.46a10.11,10.11,0,0,1-6.25,2.13Z"/><path class="cls-1" d="M261.27,405.23a10.28,10.28,0,0,0,10.29,10.28,10.11,10.11,0,0,0,6.25-2.13c-1.14-3.3-2.31-6.49-3.48-9.55s-2.35-6-3.53-8.85a10.27,10.27,0,0,0-9.53,10.25Z"/><path class="cls-7" d="M119,466.21h0a17.58,17.58,0,0,0,2.27,9.64,18,18,0,0,0,15.55,9,17.42,17.42,0,0,0,9.47-2.86h.07a17.42,17.42,0,0,0,9.47,2.86,17.67,17.67,0,0,0,17.82-18.62h0a17.55,17.55,0,0,0,7.21-6.78,17.94,17.94,0,0,0,0-18,17.55,17.55,0,0,0-7.21-6.78h0a17.69,17.69,0,0,0-2.26-9.64,18,18,0,0,0-13.24-8.83,17.13,17.13,0,0,0-7.22.59,226.09,226.09,0,0,0-17.84,22.53,206.28,206.28,0,0,0-15.41,26.14c.21.14.43.27.65.39l.67.37Zm27.33-26a10.21,10.21,0,1,1-7.24,3A10.2,10.2,0,0,1,146.36,440.23Z"/><path class="cls-1" d="M146.36,460.68a10.23,10.23,0,1,0-7.24-3A10.2,10.2,0,0,0,146.36,460.68Z"/><path class="cls-8" d="M730,703.32l-14,58.41-14,58.42,63.17,23.25,63.16,23.24a89.13,89.13,0,0,0,20.77,5.85,73,73,0,0,0,30.41-1.61,75.16,75.16,0,0,0,32.6-19.14,96.75,96.75,0,0,0,22.1-34.09,103.43,103.43,0,0,0,5.72-21.19,115.73,115.73,0,0,0,1.34-21.94c-.88-26.57-2.9-50.78-5.43-72.3s-5.59-40.33-8.53-56.1c-9.42-50.34-20.18-82.39-29.72-103s-17.85-29.85-22.37-34.52c-34.1-35.32-79.59-50.81-118.29-57.3a315.51,315.51,0,0,0-77.6-3.34,274.3,274.3,0,0,0-46.82,8.62,271.47,271.47,0,0,0-62.9,26.12,271.38,271.38,0,0,0-53.77,40.47,217.9,217.9,0,0,1,26.66,10.19,200,200,0,0,1,19,10,163.32,163.32,0,0,1,15.59,10.5c3.84,3,6.4,5.24,7.86,6.56,2.1,1.9,4.66,4.35,7.44,7.37a112.19,112.19,0,0,1,8.73,10.76,113.94,113.94,0,0,1,12.56,22.74,124.78,124.78,0,0,1,4.77,14c9.54,33,24.19,64.15,40.11,94.78s33.13,60.77,47.76,91.89q5.92-24.64,11.83-49.3T730,703.32Z"/><path class="cls-9" d="M396.29,634.1s4.46-2.79,14.65-1.11,26.11,7.82,49,25.67"/><path class="cls-9" d="M470.57,647.73s-8.59-6.11-20.08-12.59-25.88-13.33-37.47-14.8"/><path class="cls-9" d="M478,638.21c-2.92-2.05-6-4.14-9.38-6.24s-6.89-4.2-10.66-6.27q-5.28-2.91-10.3-5.32c-3.33-1.6-6.57-3.06-9.67-4.37"/><path class="cls-1" d="M404,520.09c-6.76,1-9.9,6.78-10.69,13.6a37.3,37.3,0,0,0,3.37,19.75A24.07,24.07,0,0,0,408.3,564.2a34.54,34.54,0,0,0,9.79,2.8,31.53,31.53,0,0,0,17.77-3,38.86,38.86,0,0,0,14.56-12.5,36.54,36.54,0,0,0,6.53,8.68,32.3,32.3,0,0,0,18.59,9.38,37.32,37.32,0,0,0,11.27-.46,28.12,28.12,0,0,0,17.56-10.48,28.94,28.94,0,0,0,5.73-17.35,33,33,0,0,0-5.59-18.39s-13-2.43-32-4S428.29,516.59,404,520.09Z"/><path class="cls-10" d="M312.4,655.64l-10.2-5.16L292,645.31l-25.2,30.8L241.59,706.9l5.86,3.82,5.86,3.83,31.57-1.38,31.56-1.37,2.26-15.37L321,681.06l-4.27-12.71Z"/><path class="cls-3" d="M271.19,634.78c-.7.51-1.63,1.16-2.76,1.87a44.36,44.36,0,0,1-4,2.21c-9,4.35-18.52,4.91-27.25,3.9s-16.69-3.6-22.65-5.53c-2.77-.9-6.15-2.11-10-3.76a114.76,114.76,0,0,1-12.6-6.36c-1.65,2.11-3.6,4.43-5.88,6.83a90.59,90.59,0,0,1-26.7,19.36l41.11,26.8,41.11,26.8,25.21-30.79,25.2-30.8-10.4-5.26Z"/><path class="cls-1" d="M587.25,473.8Q606.51,524,625.76,574.13t38.51,100.34a7.08,7.08,0,0,0,13.61-1.81l13.16-113,13.17-113a272.75,272.75,0,0,0-35.1,2.39A266.69,266.69,0,0,0,627,458.14c-7.57,2.3-14.67,4.83-21.29,7.48S592.91,471,587.25,473.8Z"/><polygon class="cls-11" points="503.87 510.64 532.96 520.23 562.05 529.81 539.21 550.22 516.36 570.62 510.12 540.63 503.87 510.64"/><path class="cls-12" d="M555.41,702.16l-20.87-21.62-20.87-21.61q-7.48-7.75-15.69-14.75a198.69,198.69,0,0,0-17.12-13c-7.26-4.93-15.33-9.75-22.92-12.81s-14.69-4.38-20-2.31a25.48,25.48,0,0,0-5.33-1.35,24.64,24.64,0,0,0-15.51,2.86,25.06,25.06,0,0,0-4.08,2.82,17.73,17.73,0,0,0-10.22,3.51,17.44,17.44,0,0,0-5,6,18.13,18.13,0,0,0-1.52,4.25,65.63,65.63,0,0,0-11.63,8.4c-1.54,1.39-2.93,2.77-4.18,4.12s-2.36,2.66-3.34,3.9a10.73,10.73,0,0,0-2.94,5,6.23,6.23,0,0,0,.5,4.66,5.77,5.77,0,0,0,2.4,2.19A8.42,8.42,0,0,0,379,663a8,8,0,0,0,3.71,0,14.6,14.6,0,0,0,5.14-2.61,78.22,78.22,0,0,1,9.91-6.42,18.83,18.83,0,0,1,7.94-2.13l.58,0,.57,0a22.31,22.31,0,0,1,8.7,1.9,59.45,59.45,0,0,1,8.06,4.21,204,204,0,0,1,25.93,18.48c9.1,7.9,16.21,16.61,14.05,23.36a8.54,8.54,0,0,1-1,2.07,10.91,10.91,0,0,1-1.79,2s-1.7,2.26-5.83,2.25-10.69-2.3-20.41-11.4c-.72-.67-1.41-1.35-2.1-2s-1.37-1.39-2-2.1a28.86,28.86,0,0,0-7.39-5.72c-3.3-1.66-7.09-2.26-10.28.68a6.51,6.51,0,0,0-3.46,5.83c-.11,4.32,3.05,11.48,16.08,22.79q4.38,3.81,8.74,7.65c2.9,2.56,5.79,5.14,8.64,7.76l25.74,23.59,25.73,23.58,30.59-37.31Z"/><path class="cls-4" d="M675,677.58a6.34,6.34,0,0,1-1.36.82,6.71,6.71,0,0,1-2.53.61,6.82,6.82,0,0,1-3.85-1q-6.15-42-12.28-84.08t-12.29-84.09l3.46-.53,3.45-.54Q656,551,662.34,593.18T675,677.58Z"/><path class="cls-4" d="M688.9,577.57q-.72,5.29-1.43,10.58L686,598.73q-4.1-24.5-8.2-49t-8.21-49l3.26-2.16,3.27-2.15q3.18,20.28,6.38,40.57T688.9,577.57Z"/><path class="cls-4" d="M641.08,616.51q-3.24-9-6.47-18.07l-6.47-18.08q-3.75-19.38-7.49-38.77t-7.48-38.78c.6.31,1.24.63,1.9.94s1.34.61,2,.92c.56.24,1.12.46,1.66.67l1.61.6q5.16,27.65,10.34,55.28Z"/><path class="cls-1" d="M312.4,739.66q2.14-14.65,4.28-29.3t4.27-29.3q-2.13-6.36-4.27-12.71l-4.28-12.71-60.23-24.9L192,605.83l63.19-15.12,63.2-15.13c7.9-1.89,15.77-3.88,23.64-5.91s15.71-4.12,23.57-6.18a50,50,0,0,1,25.36-.13c10.22,2.69,21.47,9.35,31.59,23.61l24,30.38,24,30.38-79.08,46Z"/><path class="cls-9" d="M276.81,640.56a18.91,18.91,0,0,0,7.86-3.78c4.15-3.2,8.72-9,10.41-19.57"/><path class="cls-11" d="M422.5,587c-10.12-14.27-21.38-20.92-31.59-23.62a50.09,50.09,0,0,0-25.36.14c-7.86,2.06-15.71,4.14-23.58,6.18s-15.73,4-23.63,5.91L312.5,577l-5.84,1.4a80.68,80.68,0,0,0,12.51,35.74A65.81,65.81,0,0,0,346,637.79a64,64,0,0,0,24.9,6,73.4,73.4,0,0,0,17.21-1.41q3.46,7.53,6.92,15.07l6.93,15.08a60.8,60.8,0,0,0,2.55,5.56,51.28,51.28,0,0,0,3.64,6,36.92,36.92,0,0,0,22.95,15.53,35.82,35.82,0,0,0,26.8-4.62,35.18,35.18,0,0,0,6.87-5.71,36.1,36.1,0,0,0,5.13-7.11,35.25,35.25,0,0,0,4.17-20.48,37.27,37.27,0,0,0-7.88-19.47l-21.84-27.59Z"/><path class="cls-13" d="M295.08,617.21a28.79,28.79,0,0,1,13.72,2.12c3.61,1.64,6.09,4.1,6.94,7a9.66,9.66,0,0,1,.33,2.28,7.14,7.14,0,0,1-1,4c-1.58,2.49-5.05,3.87-9.72,4a44,44,0,0,1-16.85-3.55,31.26,31.26,0,0,0,1.87-2.67,32.7,32.7,0,0,0,1.85-3.37,32.44,32.44,0,0,0,2.87-9.81Z"/><path class="cls-1" d="M337.21,600.17a4.92,4.92,0,1,1-1.44-3.48A4.9,4.9,0,0,1,337.21,600.17Z"/><path class="cls-6" d="M315.52,664.92c5.11.49,10.66.84,16.61,1s12.3,0,19-.49a218.74,218.74,0,0,0,24-3c7.36-1.36,14-3,20-4.67l3.4,7.42,3.41,7.41a162.77,162.77,0,0,1-25.37,7.4,155.16,155.16,0,0,1-33,3.14c-4.12-.06-8.08-.28-11.86-.62s-7.37-.81-10.78-1.36L318.24,673Z"/><path class="cls-12" d="M504.11,516.05c.63-1.19,1.25-2.43,1.85-3.74s1.19-2.68,1.75-4.12a76.18,76.18,0,0,0,3.69-12.62,77.48,77.48,0,0,0,1.38-10.87,18.72,18.72,0,0,1,4.71.92,12,12,0,0,1,5.16,3.31c3.06,3.44,3.8,8.84,2.65,14s-4.19,10-8.68,12.35a15,15,0,0,1-7.35,1.62A20.6,20.6,0,0,1,504.11,516.05Z"/><polygon class="cls-11" points="402.03 487.81 371.41 488.62 340.79 489.43 356.81 515.54 372.82 541.65 387.42 514.73 402.03 487.81"/><path class="cls-12" d="M369.67,706.5l23.47-19,23.48-19q8.52-6.61,17.63-12.36a200.8,200.8,0,0,1,18.81-10.48c7.88-3.85,16.56-7.46,24.51-9.41s15.17-2.24,20.13.57a24.87,24.87,0,0,1,20.41,4.46,25.38,25.38,0,0,1,3.64,3.37,18.25,18.25,0,0,1,4,1.15,17.18,17.18,0,0,1,9.71,10.44,17.76,17.76,0,0,1,.9,4.42l7.84,8.61,7.84,8.62a10.24,10.24,0,0,1,3.31,6.16,7,7,0,0,1-1.33,5.47,7.25,7.25,0,0,1-6,2.14,10.05,10.05,0,0,1-7.06-3.71,33.11,33.11,0,0,0-5.87-4.92,31.46,31.46,0,0,0-11.24-4.64l-.57-.11-.56-.09a29.17,29.17,0,0,0-8.55-.09,32.34,32.34,0,0,0-8.26,2.3,203.55,203.55,0,0,0-28.29,14.6C467.46,701.44,459.17,709,460.35,716a8.31,8.31,0,0,0,.7,2.19,10.57,10.57,0,0,0,1.48,2.27s1.36,2.48,5.45,3,10.9-.75,21.83-8.37c.8-.56,1.59-1.13,2.37-1.72s1.55-1.18,2.31-1.79a29.39,29.39,0,0,1,8.13-4.61c3.51-1.17,7.34-1.22,10.09,2.15a6.5,6.5,0,0,1,2.59,6.26c-.52,4.29-4.66,10.93-19.17,20.27q-4.89,3.13-9.74,6.32c-3.24,2.12-6.46,4.26-9.66,6.45L447.9,768.18l-28.84,19.68q-12.35-20.34-24.7-40.68Z"/><path class="cls-12" d="M511.86,493c-3,17.92-11.87,33.11-23.85,43.18s-27,15-42.35,12.5-28-12.1-36.05-25.5S398,492.5,401,474.58s11.87-33.11,23.85-43.19,27-15,42.35-12.5,28,12.11,36.05,25.51S514.84,475.06,511.86,493Z"/><path class="cls-14" d="M471.85,480a3.44,3.44,0,0,1-1.38,2.21,3.41,3.41,0,1,1-1.43-6.14,3.41,3.41,0,0,1,2.81,3.93Z"/><path class="cls-14" d="M431.12,474.34a3.41,3.41,0,1,1-5.35-3.34,3.41,3.41,0,0,1,5.35,3.34Z"/><path class="cls-9" d="M440.53,490l-2.67-3.42-2.66-3.42a.3.3,0,0,1-.05-.31.32.32,0,0,1,.25-.2l4-.3,4-.31,1.65-9.95,1.66-10"/><path class="cls-9" d="M455,500.52a11.11,11.11,0,0,1-4.31,4.21,12.93,12.93,0,0,1-6.16,1.58,13.25,13.25,0,0,1-6.71-1.78,11.6,11.6,0,0,1-4.58-4.79"/><polyline class="cls-9" points="464.12 459.57 473.72 463.76 483.32 467.96"/><path class="cls-9" d="M536.34,660.58s-4-3.4-14.34-3.19-27,4-52.17,18.42"/><path class="cls-9" d="M438.08,457.74l-10.33,2.5-10.32,2.49"/><path class="cls-9" d="M460.87,663.48s9.38-4.82,21.67-9.6,27.52-9.5,39.21-9.31"/><path class="cls-7" d="M485.46,498.27a9,9,0,1,1-1.56-6.7A9,9,0,0,1,485.46,498.27Z"/><path class="cls-7" d="M430.81,490.18a9,9,0,1,1-1.56-6.71A9,9,0,0,1,430.81,490.18Z"/><path class="cls-11" d="M408.14,452.67a76.77,76.77,0,0,0,23.19.76c13.17-1.5,29.49-6.78,42.1-21.86A129.81,129.81,0,0,0,483,454.75c6.46,12.16,16.3,25.44,29.81,29.95a17.4,17.4,0,0,1,4.7,1,11.7,11.7,0,0,1,7,6s7.61-16.57,5.79-36-13.07-41.81-50.79-53.37a72.31,72.31,0,0,0-36-.14c-19.23,5-40.89,20.3-50.62,61.2a13.52,13.52,0,0,1,3.3-1,12.94,12.94,0,0,1,7.42.72l2.3-5.19Z"/><path class="cls-5" d="M426.85,501.67a6.13,6.13,0,0,0,.11-.73c0-.25.05-.5.06-.74a14.33,14.33,0,0,0-.07-2.07c-.07-.69-.17-1.37-.28-2.05-.27-1.75-.59-3.5-.95-5.23s-.76-3.47-1.2-5.18a.8.8,0,0,0-1.42-.26c-.69,1-1.37,2-2,3s-1.3,2.05-1.92,3.08c-.74,1.23-1.53,2.49-2.2,3.81a14.93,14.93,0,0,0-1.48,4.1,8.63,8.63,0,0,0-.11,2.09,6.38,6.38,0,0,0,.5,2,5.53,5.53,0,0,0,2,2.3,5.57,5.57,0,0,0,5.81.34,5.81,5.81,0,0,0,2.85-3.2A7.84,7.84,0,0,0,426.85,501.67Z"/><path class="cls-9" d="M454.93,653c3.18-1.61,6.57-3.23,10.18-4.83s7.42-3.18,11.44-4.69c3.76-1.42,7.42-2.68,10.95-3.79s6.94-2.1,10.2-3"/><path class="cls-9" d="M555.41,702.16l39,32.78,39,32.78"/><path class="cls-12" d="M705.12,428.49c1,21.4-5.23,41.15-16.19,55.77s-26.61,24.11-44.36,25S610.33,502.33,598,488.9s-20.44-32.44-21.47-53.84,5.24-41.14,16.19-55.76,26.61-24.12,44.36-25,34.24,6.94,46.55,20.37S704.09,407.09,705.12,428.49Z"/><path class="cls-14" d="M646,424.78A4,4,0,0,1,639.3,428a4.08,4.08,0,0,1-1.32-2.79,4,4,0,0,1,6.73-3.18A4,4,0,0,1,646,424.78Z"/><path class="cls-14" d="M603.37,433.9a4.07,4.07,0,0,1-1,2.91,4,4,0,0,1-6-5.41,4.08,4.08,0,0,1,2.79-1.32,4,4,0,0,1,4.22,3.82Z"/><path class="cls-9" d="M620.18,448l-4.49-2.46L611.2,443a.38.38,0,0,1-.19-.32.36.36,0,0,1,.18-.33l4.21-2.21,4.21-2.21-2.86-11.56-2.86-11.55"/><path class="cls-9" d="M640.15,455.09a13.06,13.06,0,0,1-3.25,6.32,15.22,15.22,0,0,1-6.3,4.07,15.68,15.68,0,0,1-8.18.51,13.55,13.55,0,0,1-6.91-3.66"/><polyline class="cls-9" points="632.6 403.39 644.79 401.38 656.98 399.37"/><path class="cls-9" d="M606,408.06l-11.88,4-11.88,4"/><path class="cls-12" d="M704.21,446.6c.31-2,.57-4.18.76-6.48s.29-4.72.28-7.27a89.44,89.44,0,0,0-1-13.23A93,93,0,0,0,702,408.9a24.16,24.16,0,0,1,6.36-.74,14.75,14.75,0,0,1,8.2,2.48c4.53,3.19,6.69,9.25,6.59,15.46s-2.45,12.58-7,16.39a16.86,16.86,0,0,1-6.46,3.33A22.39,22.39,0,0,1,704.21,446.6Z"/><path class="cls-7" d="M667.58,442.65a10.6,10.6,0,1,1-3.47-7.34A10.56,10.56,0,0,1,667.58,442.65Z"/><path class="cls-7" d="M607.92,456.83a10.61,10.61,0,1,1-3.47-7.34A10.55,10.55,0,0,1,607.92,456.83Z"/><path class="cls-12" d="M583.55,467c-.7-1.78-1.39-3.66-2-5.63s-1.28-4-1.86-6.19a112.94,112.94,0,0,1-2.86-14.09,116.56,116.56,0,0,1-1-12.24,21.06,21.06,0,0,0-5.5.17,13.61,13.61,0,0,0-6.43,2.88c-4.1,3.43-5,9.57-3.71,15.75s4.77,12.42,9.42,16a16.83,16.83,0,0,0,8,3.28A22.79,22.79,0,0,0,583.55,467Z"/><path class="cls-11" d="M608.71,376.88A26.49,26.49,0,1,1,601,358.13,26.43,26.43,0,0,1,608.71,376.88Z"/><path class="cls-11" d="M656.67,358.91a37.39,37.39,0,1,1-10.95-26.44A37.24,37.24,0,0,1,656.67,358.91Z"/><path class="cls-11" d="M716.79,358.91a37.4,37.4,0,1,1-11-26.44A37.25,37.25,0,0,1,716.79,358.91Z"/><path class="cls-10" d="M345.08,312.75c-4.2,19.35-1.31,38.33,6.77,53.37s21.35,26.14,37.89,29.73,33.21-1,46.8-11.33,24.11-26.39,28.31-45.74,1.32-38.34-6.77-53.38-21.34-26.14-37.88-29.73-33.21,1-46.8,11.33S349.29,293.39,345.08,312.75Z"/><path class="cls-11" d="M674.65,391.53a58.38,58.38,0,0,0,4.89,18.06c4.12,8.59,11.59,16.34,25,12.91,0,0-.25-2.17-.69-4.95A70.94,70.94,0,0,0,702,408.9s1-.23,2.47-.42a28.83,28.83,0,0,1,5.67-.19,65.42,65.42,0,0,0,1.36-9.54,83.43,83.43,0,0,0-1.36-22.83l-17.74,7.8Z"/><path class="cls-12" d="M730,702.16l-12.84,52.71-12.83,52.71a224.55,224.55,0,0,1-43-15.77A210.5,210.5,0,0,1,632.91,775a153.38,153.38,0,0,1-17.4-14.16A140.61,140.61,0,0,1,593.32,734a97.61,97.61,0,0,1-6.87-13.54c-3.1-7.57-5.51-16.75-2.78-23.15a10.63,10.63,0,0,1,1.15-2.14,6.93,6.93,0,0,1,2.69-2.34,8.27,8.27,0,0,1,5.73-.24,13.12,13.12,0,0,1,4.21,2,44.11,44.11,0,0,1,8.35,8.63c2.45,3.22,4.65,6.66,6.8,9.94a39.63,39.63,0,0,0,5.73,7.26c2.41,2.24,5.22,3.67,8.13,2.42a3.78,3.78,0,0,0,1.41-1.1,5.41,5.41,0,0,0,.89-1.59c2-5.7,0-13.45-2.53-19.78a80.4,80.4,0,0,0-5.57-11.22,116.51,116.51,0,0,0-12.19-15.48c-5.16-5.7-11.67-12.33-20.31-21.1a91.59,91.59,0,0,1-9.07-10.06c-2.33-3.28-3.6-6.42-2.62-9.26a7.11,7.11,0,0,1,2.3-3.17,13.43,13.43,0,0,1,3.15-1.89,12.36,12.36,0,0,1-4-7.61,8.2,8.2,0,0,1,1.92-6.63,7.68,7.68,0,0,1,5.08-2.16,12.71,12.71,0,0,1,3.24.17A13.17,13.17,0,0,1,586.8,605a7.87,7.87,0,0,1,6.24-7.41,12.44,12.44,0,0,1,2.63-.35,8.6,8.6,0,0,1,2.49.32,29.45,29.45,0,0,1,3.21,1.17c1.2.5,2.6,1.1,4.16,1.82s3.28,1.57,5.14,2.55c.67-.69,1.38-1.52,2.13-2.32a13.65,13.65,0,0,1,2.35-2.08c3.64-2.36,8.21-1.36,12.56.74A76.92,76.92,0,0,1,639,606.81a115.59,115.59,0,0,1,15,13,107.73,107.73,0,0,1,7.6,8.66c13.67,17.37,21.48,28,27.39,35.64a149.46,149.46,0,0,0,16,18.35c2.76,2.67,6.2,5.8,10.37,9.17A163.21,163.21,0,0,0,730,702.16Z"/><path class="cls-9" d="M581.92,628.2c4,2.6,8.18,5.52,12.52,8.82s8.8,7,13.33,11a213.47,213.47,0,0,1,16.61,16.69c4.84,5.45,9,10.7,12.58,15.57"/><path class="cls-9" d="M588.15,612c4.49,2.77,9.3,6,14.31,9.7s10.23,7.94,15.5,12.71A204.49,204.49,0,0,1,635.2,652c5,5.72,9.16,11.21,12.7,16.22"/><path class="cls-9" d="M610.67,603.13c4.76,3.76,9.79,8,15,12.85s10.48,10.19,15.78,16.15c3.66,4.11,7,8.17,10.11,12.13s5.9,7.83,8.47,11.56"/><polyline class="cls-9" points="846.46 734.94 788.23 718.55 730.01 702.16"/><path class="cls-10" d="M343.17,329.4c0-1.89.11-3.9.29-6s.45-4.35.84-6.67a82.44,82.44,0,0,1,2.91-11.91,84.78,84.78,0,0,1,3.7-9.44,22.68,22.68,0,0,0-5.69-1.64,13.66,13.66,0,0,0-7.85,1c-4.62,2.22-7.5,7.42-8.35,13.1s.33,11.84,3.86,16a15.7,15.7,0,0,0,5.39,4A21.58,21.58,0,0,0,343.17,329.4Z"/><polyline class="cls-9" points="771.1 645.82 779.99 681.88 788.88 717.93"/><path class="cls-1" d="M354.21,289.14A44.36,44.36,0,0,0,373.1,295c11.25.93,26.12-2.17,40.58-18.33a51,51,0,0,0,20.85,33.54c10.27,7.2,22.68,10,33.74,7.06,8.28-2.2,15.66-7.56,21.14-14.94a50.86,50.86,0,0,0,9.67-27.09,50.75,50.75,0,0,0-10-29.82,42,42,0,0,0-24.05-16,41.1,41.1,0,0,0-25.85,3A51.58,51.58,0,0,0,427,240a67,67,0,0,0-18.61-7c-10.4-2.26-24-2.68-37.89,4.06a58.19,58.19,0,0,0-25,23.48,62.34,62.34,0,0,0-8.12,34.18,15.45,15.45,0,0,1,2.21-.73,15.68,15.68,0,0,1,8.05.07,17.31,17.31,0,0,1,3.28,1.27q.31-.69.66-1.41c.23-.47.48-1,.74-1.45s.63-1.18.94-1.74S353.89,289.65,354.21,289.14Z"/><path class="cls-10" d="M453.45,366.8c.93-1.52,1.86-3.12,2.77-4.82s1.81-3.48,2.68-5.35a101.07,101.07,0,0,0,4.82-12.4,104.78,104.78,0,0,0,2.8-11,20,20,0,0,1,5.14,1,13.14,13.14,0,0,1,5.61,3.62c3.33,3.77,3.24,9.51,1.09,14.95S472,363.39,467.09,366a16.35,16.35,0,0,1-8,1.75A22.91,22.91,0,0,1,453.45,366.8Z"/><path class="cls-10" d="M784.47,513.84c.63-2.42,1-5,1.44-7.48a42.69,42.69,0,0,1,1.48-6.7c1.23-3.55,2.66-7.88,4.86-11.38s5.16-6.15,9.44-6.34c0,0,1.81-.07,3.42,2.47s3,7.7,2.19,18.18A94.25,94.25,0,0,1,803.39,523a98.14,98.14,0,0,1-8.23,19.12L786.27,558l-8.9,15.86a22.7,22.7,0,0,0-2.12,5.22,19.86,19.86,0,0,0-.66,5.59,11.29,11.29,0,0,0,2.38,7.22c1.72,2,4.59,3.18,9.22,2.76a46.85,46.85,0,0,0-5.11,9c-2,4.88-3,10.54,1.28,13.63a9.32,9.32,0,0,0,6.33,2c3.84-.24,9-2.94,14.33-12.79,0,0,2.6,5,7.06,6.79s10.75.28,18.15-12.75a8.48,8.48,0,0,0,8.75,3.4c5.65-1.29,13.86-8.58,24.09-32.56q2.14-5,4.4-10t4.58-9.91c5-10.6,12.26-29.32,13.34-49.53s-4.06-41.91-24-58.48a54.43,54.43,0,0,0-14.49-8.71,48.39,48.39,0,0,0-16.46-3.51A45.8,45.8,0,0,0,802.79,438c-9,5.5-18,15-25.77,30.76a146.24,146.24,0,0,0-7.47,18.65c-3.32,10.35-5.81,22.77-2.49,31a8.78,8.78,0,0,0,4.09,4.53,7.75,7.75,0,0,0,6,.54l.32-.11.32-.12a9.37,9.37,0,0,0,4.36-3.71A19.86,19.86,0,0,0,784.47,513.84Z"/><path class="cls-9" d="M819.69,530.81q-4.22,10.11-9.4,20.87c-3.47,7.16-7.29,14.51-11.49,22q-3.12,5.57-6.28,10.81c-2.11,3.49-4.22,6.89-6.33,10.17"/><path class="cls-9" d="M836.81,539.59s-5.83,12.91-13,27.72S808.25,598.86,803,606.49"/><path class="cls-9" d="M852.89,547.81l-12.33,26.36-12.33,26.36"/><path class="cls-10" d="M611.13,263.86c1,19.78-5,38-15.41,51.54s-25.34,22.29-42.24,23.13-32.61-6.42-44.32-18.84-19.46-30-20.44-49.76,5-38,15.41-51.55,25.34-22.29,42.24-23.13,32.6,6.42,44.32,18.84S610.15,244.07,611.13,263.86Z"/><path class="cls-14" d="M556.51,266.71a3.71,3.71,0,1,1-1.22-2.58A3.72,3.72,0,0,1,556.51,266.71Z"/><path class="cls-14" d="M516.66,279.11a3.72,3.72,0,0,1-1,2.68,3.72,3.72,0,1,1-2.94-6.21,3.71,3.71,0,0,1,3.9,3.53Z"/><path class="cls-9" d="M535.2,289l-4.15-2.27-4.14-2.27a.37.37,0,0,1-.19-.3.36.36,0,0,1,.17-.3l3.89-2,3.9-2L532,269.07l-2.64-10.68"/><path class="cls-9" d="M555.12,291.78a12,12,0,0,1-2.45,6.1,14.08,14.08,0,0,1-5.45,4.29,14.46,14.46,0,0,1-7.48,1.17,12.56,12.56,0,0,1-6.67-2.78"/><polyline class="cls-9" points="541.45 252.91 552.79 251.56 564.13 250.19"/><path class="cls-9" d="M519.62,258.57l-10.39,5.11-10.4,5.11"/><path class="cls-10" d="M610.29,280.6c.29-1.87.53-3.87.7-6s.27-4.37.27-6.73a83.2,83.2,0,0,0-3-22.13,22.27,22.27,0,0,1,5.88-.69,13.62,13.62,0,0,1,7.58,2.3c4.19,2.94,6.19,8.54,6.1,14.28s-2.27,11.63-6.44,15.15a15.69,15.69,0,0,1-6,3.09A21.13,21.13,0,0,1,610.29,280.6Z"/><path class="cls-7" d="M581.51,277.93a9.81,9.81,0,1,1-3.21-6.78A9.76,9.76,0,0,1,581.51,277.93Z"/><path class="cls-7" d="M522.74,298.64a9.81,9.81,0,1,1-3.21-6.78A9.76,9.76,0,0,1,522.74,298.64Z"/><path class="cls-10" d="M495.37,299.44q-1-2.47-1.94-5.2c-.62-1.82-1.22-3.73-1.77-5.72A103.24,103.24,0,0,1,488,264.18a20.24,20.24,0,0,0-5.23.16,13.07,13.07,0,0,0-6.13,2.66c-3.91,3.16-4.76,8.84-3.53,14.56s4.54,11.48,9,14.81a16.36,16.36,0,0,0,7.62,3A22.75,22.75,0,0,0,495.37,299.44Z"/><path class="cls-11" d="M488,264.18s9.85-.53,21.79-7.2,26-19.48,34.32-44.05a74.63,74.63,0,0,0,15.57,20.94c10.43,9.71,26.16,17.92,47.35,11.9.44-.12.91-.23,1.41-.32s1-.18,1.59-.25a21.78,21.78,0,0,1,2.33-.15c.72,0,1.39,0,2,.06a82.38,82.38,0,0,0-1.69-21.68c-2.22-10.32-7-22.39-17.17-32.21-13-12.61-31.25-18.25-49.37-17.32s-36.17,8.43-48.88,22.1c-12.48,13.43-16.59,29.63-17.47,42.93a89.92,89.92,0,0,0,1.9,25.48,10.84,10.84,0,0,1,1.17-.25,12.94,12.94,0,0,1,1.36-.17,14.57,14.57,0,0,1,2.08,0A15.08,15.08,0,0,1,488,264.18Z"/><path class="cls-11" d="M608.32,140.63a42.78,42.78,0,1,1-12.53-30.25A42.64,42.64,0,0,1,608.32,140.63Z"/><path class="cls-14" d="M388.19,324.5a3.74,3.74,0,0,0,2.85,4.43,3.73,3.73,0,1,0-2.85-4.43Z"/><path class="cls-14" d="M433.6,337.38a3.72,3.72,0,0,0,2.85,4.42,3.7,3.7,0,0,0,4.42-2.84,3.72,3.72,0,1,0-7.27-1.58Z"/><path class="cls-9" d="M412.29,344.63l4.22-2.13,4.23-2.12a.36.36,0,0,0,.19-.29.34.34,0,0,0-.16-.32L417,337.6l-3.82-2.17,3-10.59,3-10.58"/><path class="cls-9" d="M391.53,356a12,12,0,0,0,3.22,5.73,14.1,14.1,0,0,0,6,3.55,14.55,14.55,0,0,0,7.57.2,12.68,12.68,0,0,0,6.26-3.61"/><polyline class="cls-9" points="407 301.55 395.58 300.99 384.17 300.43"/><path class="cls-9" d="M436.82,313.09l10.42,5.07,10.41,5.07"/><path class="cls-7" d="M367.71,339.81a9.82,9.82,0,1,0,4.28-6.17A9.82,9.82,0,0,0,367.71,339.81Z"/><path class="cls-7" d="M425.88,356.72a9.8,9.8,0,1,0,4.28-6.17A9.79,9.79,0,0,0,425.88,356.72Z"/><path class="cls-5" d="M449.71,328.92l-5.86-1.65L438,325.62a13.18,13.18,0,0,0-5.1-.4,13,13,0,0,0-4.87,1.59,12.89,12.89,0,0,0-2.9,2.2A13.29,13.29,0,0,0,423,331.9l-6-1.85-6-1.84a13.14,13.14,0,0,0-9.48-14L394,312.08l-7.5-2.12a13.13,13.13,0,0,0-7.12,25.27l7.5,2.12,7.49,2.11a13.55,13.55,0,0,0,1.63.35,13.11,13.11,0,0,0,5.08-.24,13.26,13.26,0,0,0,3.27-1.29,13,13,0,0,0,3.15-2.47,13.09,13.09,0,0,0,2.24-3.27l5.88,1.81,5.87,1.8a13.14,13.14,0,0,0,0,4.38,13.32,13.32,0,0,0,1.48,4.15,13.16,13.16,0,0,0,3.33,3.89,12.87,12.87,0,0,0,4.56,2.32l5.86,1.65,5.86,1.65a11.72,11.72,0,0,0,1.62.35,12.65,12.65,0,0,0,1.61.14,13.13,13.13,0,0,0,3.89-25.76Zm-47.57,5.43a8.81,8.81,0,0,1-3.2,1,8.72,8.72,0,0,1-3.36-.27L388.09,333l-7.5-2.11a8.62,8.62,0,0,1,4.68-16.6l7.5,2.11,7.49,2.11a8.63,8.63,0,0,1,6,10.64,8.49,8.49,0,0,1-1.53,3A8.58,8.58,0,0,1,402.14,334.35Zm52.31,9.55a8.64,8.64,0,0,1-10.64,6L438,348.21l-5.86-1.65a8.54,8.54,0,0,1-5.18-4.08,8.5,8.5,0,0,1-1.05-3.2,8.7,8.7,0,0,1,.27-3.36,8.51,8.51,0,0,1,1.52-3,8.78,8.78,0,0,1,2.57-2.19,8.64,8.64,0,0,1,6.55-.78l5.86,1.65,5.86,1.65a8.64,8.64,0,0,1,6,10.65Z"/><path class="cls-1" d="M295.27,694.12A19.19,19.19,0,0,0,292,691a17.29,17.29,0,0,0-6-3,17.56,17.56,0,0,0-12,1.33,25.55,25.55,0,0,0-6.46,4.38l-.51.48-.52.48L241.71,717l-24.83,22.35-.88.75-.89.74a18.37,18.37,0,0,0-6.46,12.73,17.12,17.12,0,0,0,17.15,18.71A18.38,18.38,0,0,0,239.08,767l.82-.83.83-.81,24.53-22.55,24.52-22.56a32.42,32.42,0,0,0,5.4-6.63c2.3-3.77,4.18-8.77,2.81-14a15.17,15.17,0,0,0-.92-2.52A16.24,16.24,0,0,0,295.27,694.12Z"/><path class="cls-12" d="M400.11,495.38c-.15-1.34-.27-2.72-.35-4.16s-.12-2.93-.11-4.47a75.29,75.29,0,0,1,1.2-13.1A78.25,78.25,0,0,1,403.54,463a18.4,18.4,0,0,0-4.71-.88,12,12,0,0,0-6,1.19c-4.12,2.08-6.79,6.82-7.6,12s.24,10.82,3.55,14.67a15,15,0,0,0,6.24,4.21A21,21,0,0,0,400.11,495.38Z"/><path class="cls-1" d="M343.36,721.34l-12.94-12.23-12.94-12.24a27.27,27.27,0,0,0-12.7-5.26c-7.42-.93-17,1.54-25.51,15.17l-17.08,29.36L245.1,765.5a18.27,18.27,0,0,0-1.64,13.2,17.09,17.09,0,0,0,21.14,12.56,18.27,18.27,0,0,0,11.38-8.6l11.09-17,11.09-17,22.6-13.7Z"/><path class="cls-11" d="M206.7,605.88a10.19,10.19,0,1,1-3-7.22A10.13,10.13,0,0,1,206.7,605.88Z"/><path class="cls-9" d="M296.77,750.87l5.27-8.53,5.28-8.53"/><path class="cls-15" d="M738.18,597.27c0-1-2.57-1.91-6.83-2.62a130.78,130.78,0,0,0-17-1.39,94.11,94.11,0,0,0-1.77-16.88c-.93-4.25-2.15-6.82-3.49-6.82s-2.57,2.57-3.5,6.82a95,95,0,0,0-1.77,16.88,130.94,130.94,0,0,0-17,1.39c-4.26.71-6.83,1.62-6.83,2.62s2.57,1.91,6.83,2.62a130.94,130.94,0,0,0,17,1.39,95,95,0,0,0,1.77,16.88c.93,4.25,2.16,6.82,3.5,6.82s2.56-2.57,3.49-6.82a94.11,94.11,0,0,0,1.77-16.88,130.78,130.78,0,0,0,17-1.39C735.61,599.18,738.18,598.27,738.18,597.27Z"/><path class="cls-16" d="M192,317.58c0-1.22-3.14-2.34-8.34-3.2a157.41,157.41,0,0,0-20.74-1.69,116.48,116.48,0,0,0-2.16-20.6c-1.14-5.19-2.63-8.33-4.26-8.33s-3.13,3.14-4.27,8.33a116.48,116.48,0,0,0-2.16,20.6,157.41,157.41,0,0,0-20.74,1.69c-5.2.86-8.34,2-8.34,3.2s3.14,2.33,8.34,3.2A159.4,159.4,0,0,0,150,322.46a116.37,116.37,0,0,0,2.16,20.6c1.14,5.19,2.63,8.33,4.27,8.33s3.12-3.14,4.26-8.33a116.37,116.37,0,0,0,2.16-20.6,159.4,159.4,0,0,0,20.74-1.68C188.81,319.91,192,318.79,192,317.58Z"/><path class="cls-17" d="M761.66,240.44c-9.61,2-15.52,4.08-19.53,8.08s-6.09,9.92-8.08,19.53a.93.93,0,0,1-1.83,0c-2-9.61-4.08-15.53-8.08-19.53s-9.91-6.1-19.53-8.08a.93.93,0,0,1,0-1.83c9.62-2,15.53-4.08,19.53-8.08s6.1-9.92,8.08-19.53a.93.93,0,0,1,1.83,0c2,9.61,4.08,15.52,8.08,19.53s9.92,6.1,19.53,8.08a.93.93,0,0,1,0,1.83Z"/><path class="cls-18" d="M133.37,373.42c-5.54,1.19-9,2.48-11.38,4.86s-3.67,5.84-4.86,11.38a.73.73,0,0,1-1.43,0c-1.19-5.54-2.48-9-4.86-11.38s-5.84-3.67-11.38-4.86a.73.73,0,0,1,0-1.43c5.54-1.19,9-2.48,11.38-4.86s3.67-5.84,4.86-11.38a.73.73,0,0,1,1.43,0c1.19,5.54,2.48,9,4.86,11.38s5.84,3.67,11.38,4.86a.73.73,0,0,1,0,1.43Z"/><path class="cls-19" d="M738.18,655.53a11,11,0,1,1,7.75-3.21A11,11,0,0,1,738.18,655.53Zm0-15.93a5,5,0,1,0,3.51,1.45A4.94,4.94,0,0,0,738.18,639.6Z"/><path class="cls-1" d="M293.64,625.17c.77.32,1.58.64,2.45.94s1.77.6,2.72.88c1.36.39,2.67.71,3.91,1s2.43.45,3.53.59"/><path class="cls-6" d="M625,572.07c6.53-19.17,11.9-34.91,15.63-45.85l5.83-17.11h0l7,8.86c6,7.59,17,21.51,37,46.83l6.89-59.1,6.88-59.1a71.06,71.06,0,0,1-4.47,19.18,65.13,65.13,0,0,1-21.33,28.92,67.52,67.52,0,0,1-15.16,8.78A57.5,57.5,0,0,1,634,507.62c-15.35-1.9-26.71-9.7-34.39-17.35a70.48,70.48,0,0,1-12.39-16.47q8.22,21.57,16.48,43.12T620.31,560c.6,1.54,1.47,3.78,2.33,6S624.37,570.52,625,572.07Z"/><polyline class="cls-6" points="750.4 707.91 737.18 767.72 723.96 827.53"/><path class="cls-2" d="M412.1,278.42c.26-.25.52-.52.79-.81s.52-.58.79-.9a23.83,23.83,0,0,0,1.72-2.37,22.72,22.72,0,0,0,1.22-2.19"/><path class="cls-10" d="M159.28,574.86c-.86-2.35-1.51-4.9-2.15-7.32A43.32,43.32,0,0,0,155,561c-1.55-3.42-3.39-7.6-5.91-10.87s-5.72-5.64-10-5.42c0,0-1.81.09-3.17,2.78s-2.26,8-.47,18.3a94.55,94.55,0,0,0,5.83,20,98.78,98.78,0,0,0,10,18.26l10.35,15,10.35,15a21.79,21.79,0,0,1,2.61,5,19.51,19.51,0,0,1,1.18,5.5,11.31,11.31,0,0,1-1.68,7.42c-1.54,2.11-4.27,3.59-8.92,3.62a46.9,46.9,0,0,1,5.94,8.48c2.47,4.67,4,10.21,0,13.69a9.3,9.3,0,0,1-6.11,2.58c-3.84.12-9.23-2.08-15.47-11.38,0,0-2.12,5.24-6.39,7.42s-10.68,1.29-19.27-11a8.49,8.49,0,0,1-8.39,4.21c-5.75-.75-14.61-7.23-27.06-30.14q-2.59-4.8-5.32-9.53c-1.81-3.15-3.65-6.3-5.49-9.43-5.94-10.09-15-28-17.95-48s.09-42.11,18.35-60.49a54.33,54.33,0,0,1,13.6-10,48.22,48.22,0,0,1,16.05-5.05,45.78,45.78,0,0,1,26.2,4.29c9.49,4.62,19.38,13.23,28.56,28.19a145.42,145.42,0,0,1,9.2,17.86c4.28,10,7.93,22.12,5.4,30.65a8.76,8.76,0,0,1-3.64,4.89,7.78,7.78,0,0,1-5.9,1.11l-.33-.08-.33-.1a9.34,9.34,0,0,1-4.68-3.28A19.42,19.42,0,0,1,159.28,574.86Z"/><path class="cls-9" d="M125.81,595.07c3.44,6.44,7.21,13.09,11.33,19.89s8.63,13.75,13.51,20.81q3.65,5.24,7.28,10.16c2.42,3.28,4.85,6.46,7.26,9.54"/><path class="cls-9" d="M109.6,605.42s7,12.3,15.53,26.38,18.49,29.93,24.42,37"/><path class="cls-9" d="M94.37,615.12l14.76,25.08,14.76,25.08"/><path class="cls-9" d="M231.29,368.62c3.82,7.3,7.57,15.07,11.15,23.31s7,17,10.15,26.14a360,360,0,0,1,18.71,94.46,391.91,391.91,0,0,1-2.57,74.93"/><path class="cls-3" d="M322.73,341.37a21.59,21.59,0,0,0-1.59,4.56,20.44,20.44,0,0,0-.34,7.26A20.76,20.76,0,0,0,325.75,364a23.17,23.17,0,0,0,4.91,4.33,19.47,19.47,0,0,0-.8,5.57,17.58,17.58,0,0,0,10.21,16.2,18.8,18.8,0,0,0,9.45,1.71,18.84,18.84,0,0,0,.94,5.82,17,17,0,0,0,7.08,9.38,17.37,17.37,0,0,0,17.46.65,33.56,33.56,0,0,0,1.92,5.26,32.91,32.91,0,0,0,3.9,6.38,31.33,31.33,0,0,0,2.9,3.23,32.2,32.2,0,0,0,2.75,2.4"/><path class="cls-3" d="M217.3,691.07l20.43-24.9,20.42-24.9"/><path class="cls-9" d="M390.13,370.63a9.89,9.89,0,0,0,3,3.54c2.09,1.53,5.38,2.59,10.17.69"/><path class="cls-9" d="M625.39,496.05a17.26,17.26,0,0,1,4.87-5.69A16.13,16.13,0,0,1,645,487.9a18.74,18.74,0,0,1,6.86,3.94"/><path class="cls-9" d="M262.75,771.12a22.6,22.6,0,0,0-3,4.26,22,22,0,0,0-2.52,7.57,21.71,21.71,0,0,0-.13,4.64,22.68,22.68,0,0,0,.56,3.51"/><path class="cls-9" d="M251.38,767.05a19.86,19.86,0,0,0-3.11,4.89,22.59,22.59,0,0,0-1.87,13"/><path class="cls-9" d="M216.47,769.59a19.24,19.24,0,0,1,.7-2.85,20.18,20.18,0,0,1,1.38-3.29A20.94,20.94,0,0,1,223.8,757a23.89,23.89,0,0,1,4.61-3"/><path class="cls-9" d="M209.72,761.24a22.93,22.93,0,0,1,1.23-3.7,23.47,23.47,0,0,1,2.68-4.69,23.1,23.1,0,0,1,4.23-4.38,23.69,23.69,0,0,1,3.55-2.34"/></svg>